<svg version="1.1" xmlns="http://www.w3.org/2000/svg" xmlns:xlink="http://www.w3.org/1999/xlink" width="1207.3662109375" height="851"><defs/><g><g transform="translate(10,-94) scale(1,1)"><rect fill="#C0C0C0" stroke="none" x="727" y="423" width="152" height="117" opacity="0.2"/></g><g transform="translate(10,-94) scale(1,1)"><rect fill="#ffff00" stroke="none" x="720" y="416" width="152" height="117"/></g><g transform="translate(10,-94) scale(1,1)"><path fill="none" stroke="#000000" d="M 720 416 L 872 416 L 872 533 L 720 533 L 720 416 Z Z" stroke-miterlimit="10"/></g><g transform="translate(10,-94) scale(1,1)"><path fill="none" stroke="#000000" d="M 720 441 L 872 441" stroke-miterlimit="10"/></g><g transform="translate(10,-94) scale(1,1)"><path fill="none" stroke="#000000" d="M 720 524 L 872 524" stroke-miterlimit="10"/></g><g transform="translate(10,-94) scale(1,1)"><g><path fill="none" stroke="none"/><text fill="#000000" stroke="none" font-family="Arial" font-size="13px" font-style="normal" font-weight="bold" text-decoration="none" x="750.119140625" y="435.5">ImageRecordIO</text></g></g><g transform="translate(10,-94) scale(1,1)"><g><path fill="none" stroke="none"/><text fill="#000000" stroke="none" font-family="Arial" font-size="13px" font-style="normal" font-weight="normal" text-decoration="none" x="725" y="458.5">+header: Header</text></g></g><g transform="translate(10,-94) scale(1,1)"><g><path fill="none" stroke="none"/><text fill="#000000" stroke="none" font-family="Arial" font-size="13px" font-style="normal" font-weight="normal" text-decoration="none" x="725" y="473.5">+label: float*</text></g></g><g transform="translate(10,-94) scale(1,1)"><g><path fill="none" stroke="none"/><text fill="#000000" stroke="none" font-family="Arial" font-size="13px" font-style="normal" font-weight="normal" text-decoration="none" x="725" y="488.5">+num_label: int</text></g></g><g transform="translate(10,-94) scale(1,1)"><g><path fill="none" stroke="none"/><text fill="#000000" stroke="none" font-family="Arial" font-size="13px" font-style="normal" font-weight="normal" text-decoration="none" x="725" y="503.5">+content: uint8_t*</text></g></g><g transform="translate(10,-94) scale(1,1)"><g><path fill="none" stroke="none"/><text fill="#000000" stroke="none" font-family="Arial" font-size="13px" font-style="normal" font-weight="normal" text-decoration="none" x="725" y="518.5">+content_size: size_t</text></g></g><g transform="translate(10,-94) scale(1,1)"><rect fill="#C0C0C0" stroke="none" x="647" y="615" width="467.833984375" height="132" opacity="0.2"/></g><g transform="translate(10,-94) scale(1,1)"><rect fill="#ffff00" stroke="none" x="640" y="608" width="467.833984375" height="132"/></g><g transform="translate(10,-94) scale(1,1)"><path fill="none" stroke="#000000" d="M 640 608 L 1107.833984375 608 L 1107.833984375 740 L 640 740 L 640 608 Z Z" stroke-miterlimit="10"/></g><g transform="translate(10,-94) scale(1,1)"><path fill="none" stroke="#000000" d="M 640 633 L 1107.833984375 633" stroke-miterlimit="10"/></g><g transform="translate(10,-94) scale(1,1)"><path fill="none" stroke="#000000" d="M 640 643 L 1107.833984375 643" stroke-miterlimit="10"/></g><g transform="translate(10,-94) scale(1,1)"><g><path fill="none" stroke="none"/><text fill="#000000" stroke="none" font-family="Arial" font-size="13px" font-style="normal" font-weight="bold" text-decoration="none" x="852.966552734375" y="627.5">Stream</text></g></g><g transform="translate(10,-94) scale(1,1)"><g><path fill="none" stroke="none"/><text fill="#000000" stroke="none" font-family="Arial" font-size="13px" font-style="italic" font-weight="normal" text-decoration="none" x="645" y="660.5">+Read(void* ptr, size_t size): size_t</text></g></g><g transform="translate(10,-94) scale(1,1)"><g><path fill="none" stroke="none"/><text fill="#000000" stroke="none" font-family="Arial" font-size="13px" font-style="italic" font-weight="normal" text-decoration="none" x="645" y="675.5">+Write(const void* ptr, size_t size): void</text></g></g><g transform="translate(10,-94) scale(1,1)"><g><path fill="none" stroke="none"/><text fill="#000000" stroke="none" font-family="Arial" font-size="13px" font-style="italic" font-weight="normal" text-decoration="none" x="645" y="690.5">~Stream(void)</text></g></g><g transform="translate(10,-94) scale(1,1)"><g><path fill="none" stroke="none"/><text fill="#000000" stroke="none" font-family="Arial" font-size="13px" font-style="normal" font-weight="normal" text-decoration="none" x="645" y="705.5">+Create(const char* uri, const char* const falg, bool allow_null = false): Stream*</text><path fill="none" stroke="#000000" d="M 645 705.5 L 1103.833984375 705.5" stroke-miterlimit="10"/></g></g><g transform="translate(10,-94) scale(1,1)"><g><path fill="none" stroke="none"/><text fill="#000000" stroke="none" font-family="Arial" font-size="13px" font-style="normal" font-weight="normal" text-decoration="none" x="645" y="720.5">+Write(const T&amp; data): void</text></g></g><g transform="translate(10,-94) scale(1,1)"><g><path fill="none" stroke="none"/><text fill="#000000" stroke="none" font-family="Arial" font-size="13px" font-style="normal" font-weight="normal" text-decoration="none" x="645" y="735.5">+Read(T* out_data): bool</text></g></g><g transform="translate(10,-94) scale(1,1)"><rect fill="#C0C0C0" stroke="none" x="767" y="855" width="176" height="87" opacity="0.2"/></g><g transform="translate(10,-94) scale(1,1)"><rect fill="#ffff00" stroke="none" x="760" y="848" width="176" height="87"/></g><g transform="translate(10,-94) scale(1,1)"><path fill="none" stroke="#000000" d="M 760 848 L 936 848 L 936 935 L 760 935 L 760 848 Z Z" stroke-miterlimit="10"/></g><g transform="translate(10,-94) scale(1,1)"><path fill="none" stroke="#000000" d="M 760 873 L 936 873" stroke-miterlimit="10"/></g><g transform="translate(10,-94) scale(1,1)"><path fill="none" stroke="#000000" d="M 760 883 L 936 883" stroke-miterlimit="10"/></g><g transform="translate(10,-94) scale(1,1)"><g><path fill="none" stroke="none"/><text fill="#000000" stroke="none" font-family="Arial" font-size="13px" font-style="normal" font-weight="bold" text-decoration="none" x="812.234130859375" y="867.5">SeekStream</text></g></g><g transform="translate(10,-94) scale(1,1)"><g><path fill="none" stroke="none"/><text fill="#000000" stroke="none" font-family="Arial" font-size="13px" font-style="italic" font-weight="normal" text-decoration="none" x="765" y="900.5">~SeekStream(void)</text></g></g><g transform="translate(10,-94) scale(1,1)"><g><path fill="none" stroke="none"/><text fill="#000000" stroke="none" font-family="Arial" font-size="13px" font-style="italic" font-weight="normal" text-decoration="none" x="765" y="915.5">+Seek(size_t pos): void</text></g></g><g transform="translate(10,-94) scale(1,1)"><g><path fill="none" stroke="none"/><text fill="#000000" stroke="none" font-family="Arial" font-size="13px" font-style="italic" font-weight="normal" text-decoration="none" x="765" y="930.5">+Tell(void): size_t</text></g></g><g transform="translate(10,-94) scale(1,1)"><path fill="none" stroke="#000000" d="M 865 848 L 865 740" stroke-miterlimit="10"/></g><g transform="translate(10,-94) scale(1,1)"><path fill="#FFFFFF" stroke="none" d="M 873.419035512032 760.3253497152483 L 865 740 L 856.580964487968 760.3253497152483"/></g><g transform="translate(10,-94) scale(1,1)"><path fill="none" stroke="#000000" d="M 873.419035512032 760.3253497152483 L 865 740 L 856.580964487968 760.3253497152483 L 873.419035512032 760.3253497152483" stroke-miterlimit="10"/></g><g transform="translate(10,-94) scale(1,1)"><rect fill="#C0C0C0" stroke="none" x="1047" y="815" width="147.3662109375" height="87" opacity="0.2"/></g><g transform="translate(10,-94) scale(1,1)"><rect fill="#ffff00" stroke="none" x="1040" y="808" width="147.3662109375" height="87"/></g><g transform="translate(10,-94) scale(1,1)"><path fill="none" stroke="#000000" d="M 1040 808 L 1187.3662109375 808 L 1187.3662109375 895 L 1040 895 L 1040 808 Z Z" stroke-miterlimit="10"/></g><g transform="translate(10,-94) scale(1,1)"><path fill="none" stroke="#000000" d="M 1040 833 L 1187.3662109375 833" stroke-miterlimit="10"/></g><g transform="translate(10,-94) scale(1,1)"><path fill="none" stroke="#000000" d="M 1040 843 L 1187.3662109375 843" stroke-miterlimit="10"/></g><g transform="translate(10,-94) scale(1,1)"><g><path fill="none" stroke="none"/><text fill="#000000" stroke="none" font-family="Arial" font-size="13px" font-style="normal" font-weight="bold" text-decoration="none" x="1080.081787109375" y="827.5">Serializable</text></g></g><g transform="translate(10,-94) scale(1,1)"><g><path fill="none" stroke="none"/><text fill="#000000" stroke="none" font-family="Arial" font-size="13px" font-style="italic" font-weight="normal" text-decoration="none" x="1045" y="860.5">~Serializable()</text></g></g><g transform="translate(10,-94) scale(1,1)"><g><path fill="none" stroke="none"/><text fill="#000000" stroke="none" font-family="Arial" font-size="13px" font-style="italic" font-weight="normal" text-decoration="none" x="1045" y="875.5">+Load(Stream* fi): void</text></g></g><g transform="translate(10,-94) scale(1,1)"><g><path fill="none" stroke="none"/><text fill="#000000" stroke="none" font-family="Arial" font-size="13px" font-style="italic" font-weight="normal" text-decoration="none" x="1045" y="890.5">+Save(Stream* fo): void</text></g></g><g transform="translate(10,-94) scale(1,1)"><rect fill="#C0C0C0" stroke="none" x="847" y="127" width="192" height="44" opacity="0.2"/></g><g transform="translate(10,-94) scale(1,1)"><rect fill="#ffff00" stroke="none" x="840" y="120" width="192" height="44"/></g><g transform="translate(10,-94) scale(1,1)"><path fill="none" stroke="#000000" d="M 840 120 L 1032 120 L 1032 164 L 840 164 L 840 120 Z Z" stroke-miterlimit="10"/></g><g transform="translate(10,-94) scale(1,1)"><path fill="none" stroke="#000000" d="M 840 145 L 1032 145" stroke-miterlimit="10"/></g><g transform="translate(10,-94) scale(1,1)"><path fill="none" stroke="#000000" d="M 840 155 L 1032 155" stroke-miterlimit="10"/></g><g transform="translate(10,-94) scale(1,1)"><g><path fill="none" stroke="none"/><text fill="#000000" stroke="none" font-family="Arial" font-size="13px" font-style="normal" font-weight="bold" text-decoration="none" x="908.898681640625" y="139.5">InputSplit</text></g></g><g transform="translate(10,-94) scale(1,1)"><rect fill="#C0C0C0" stroke="none" x="15" y="359" width="472.17578125" height="117" opacity="0.2"/></g><g transform="translate(10,-94) scale(1,1)"><rect fill="#ffff00" stroke="none" x="8" y="352" width="472.17578125" height="117"/></g><g transform="translate(10,-94) scale(1,1)"><path fill="none" stroke="#000000" d="M 8 352 L 480.17578125 352 L 480.17578125 469 L 8 469 L 8 352 Z Z" stroke-miterlimit="10"/></g><g transform="translate(10,-94) scale(1,1)"><path fill="none" stroke="#000000" d="M 8 377 L 480.17578125 377" stroke-miterlimit="10"/></g><g transform="translate(10,-94) scale(1,1)"><path fill="none" stroke="#000000" d="M 8 387 L 480.17578125 387" stroke-miterlimit="10"/></g><g transform="translate(10,-94) scale(1,1)"><g><path fill="none" stroke="none"/><text fill="#000000" stroke="none" font-family="Arial" font-size="13px" font-style="normal" font-weight="bold" text-decoration="none" x="211.943359375" y="371.5">FileSystem</text></g></g><g transform="translate(10,-94) scale(1,1)"><g><path fill="none" stroke="none"/><text fill="#000000" stroke="none" font-family="Arial" font-size="13px" font-style="normal" font-weight="normal" text-decoration="none" x="13" y="404.5">+GetInstance(const URI &amp;path): FileSystem *</text><path fill="none" stroke="#000000" d="M 13 404.5 L 274.18701171875 404.5" stroke-miterlimit="10"/></g></g><g transform="translate(10,-94) scale(1,1)"><g><path fill="none" stroke="none"/><text fill="#000000" stroke="none" font-family="Arial" font-size="13px" font-style="italic" font-weight="normal" text-decoration="none" x="13" y="419.5">~FileSystem()</text></g></g><g transform="translate(10,-94) scale(1,1)"><g><path fill="none" stroke="none"/><text fill="#000000" stroke="none" font-family="Arial" font-size="13px" font-style="italic" font-weight="normal" text-decoration="none" x="13" y="434.5">+GetPathInfo(const URI &amp;path): FileInfo</text></g></g><g transform="translate(10,-94) scale(1,1)"><g><path fill="none" stroke="none"/><text fill="#000000" stroke="none" font-family="Arial" font-size="13px" font-style="italic" font-weight="normal" text-decoration="none" x="13" y="449.5">+Open(const URI &amp;path, const char* const falt, bool allow_null = false): Stream *</text></g></g><g transform="translate(10,-94) scale(1,1)"><g><path fill="none" stroke="none"/><text fill="#000000" stroke="none" font-family="Arial" font-size="13px" font-style="italic" font-weight="normal" text-decoration="none" x="13" y="464.5">+OpenForRead(const URI &amp;path, bool allow_null = false): SeekStream *</text></g></g><g transform="translate(10,-94) scale(1,1)"><rect fill="#C0C0C0" stroke="none" x="7" y="639" width="111.59716796875" height="44" opacity="0.2"/></g><g transform="translate(10,-94) scale(1,1)"><rect fill="#ffff00" stroke="none" x="0" y="632" width="111.59716796875" height="44"/></g><g transform="translate(10,-94) scale(1,1)"><path fill="none" stroke="#000000" d="M 0 632 L 111.59716796875 632 L 111.59716796875 676 L 0 676 L 0 632 Z Z" stroke-miterlimit="10"/></g><g transform="translate(10,-94) scale(1,1)"><path fill="none" stroke="#000000" d="M 0 657 L 111.59716796875 657" stroke-miterlimit="10"/></g><g transform="translate(10,-94) scale(1,1)"><path fill="none" stroke="#000000" d="M 0 667 L 111.59716796875 667" stroke-miterlimit="10"/></g><g transform="translate(10,-94) scale(1,1)"><g><path fill="none" stroke="none"/><text fill="#000000" stroke="none" font-family="Arial" font-size="13px" font-style="normal" font-weight="bold" text-decoration="none" x="8.114990234375" y="651.5">LocalFileSystem</text></g></g><g transform="translate(10,-94) scale(1,1)"><rect fill="#C0C0C0" stroke="none" x="191" y="639" width="113.03173828125" height="44" opacity="0.2"/></g><g transform="translate(10,-94) scale(1,1)"><rect fill="#ffff00" stroke="none" x="184" y="632" width="113.03173828125" height="44"/></g><g transform="translate(10,-94) scale(1,1)"><path fill="none" stroke="#000000" d="M 184 632 L 297.03173828125 632 L 297.03173828125 676 L 184 676 L 184 632 Z Z" stroke-miterlimit="10"/></g><g transform="translate(10,-94) scale(1,1)"><path fill="none" stroke="#000000" d="M 184 657 L 297.03173828125 657" stroke-miterlimit="10"/></g><g transform="translate(10,-94) scale(1,1)"><path fill="none" stroke="#000000" d="M 184 667 L 297.03173828125 667" stroke-miterlimit="10"/></g><g transform="translate(10,-94) scale(1,1)"><g><path fill="none" stroke="none"/><text fill="#000000" stroke="none" font-family="Arial" font-size="13px" font-style="normal" font-weight="bold" text-decoration="none" x="190.67724609375" y="651.5">HDFSFileSystem</text></g></g><g transform="translate(10,-94) scale(1,1)"><rect fill="#C0C0C0" stroke="none" x="383" y="639" width="112" height="44" opacity="0.2"/></g><g transform="translate(10,-94) scale(1,1)"><rect fill="#ffff00" stroke="none" x="376" y="632" width="112" height="44"/></g><g transform="translate(10,-94) scale(1,1)"><path fill="none" stroke="#000000" d="M 376 632 L 488 632 L 488 676 L 376 676 L 376 632 Z Z" stroke-miterlimit="10"/></g><g transform="translate(10,-94) scale(1,1)"><path fill="none" stroke="#000000" d="M 376 657 L 488 657" stroke-miterlimit="10"/></g><g transform="translate(10,-94) scale(1,1)"><path fill="none" stroke="#000000" d="M 376 667 L 488 667" stroke-miterlimit="10"/></g><g transform="translate(10,-94) scale(1,1)"><g><path fill="none" stroke="none"/><text fill="#000000" stroke="none" font-family="Arial" font-size="13px" font-style="normal" font-weight="bold" text-decoration="none" x="391.905029296875" y="651.5">S3FileSystem</text></g></g><g transform="translate(10,-94) scale(1,1)"><path fill="none" stroke="#000000" d="M 243 632 L 243 469" stroke-miterlimit="10"/></g><g transform="translate(10,-94) scale(1,1)"><path fill="#FFFFFF" stroke="none" d="M 251.41903551203197 489.3253497152483 L 243 469 L 234.58096448796803 489.3253497152483"/></g><g transform="translate(10,-94) scale(1,1)"><path fill="none" stroke="#000000" d="M 251.41903551203197 489.3253497152483 L 243 469 L 234.58096448796803 489.3253497152483 L 251.41903551203197 489.3253497152483" stroke-miterlimit="10"/></g><g transform="translate(10,-94) scale(1,1)"><path fill="none" stroke="#000000" d="M 56 632 L 56 469" stroke-miterlimit="10"/></g><g transform="translate(10,-94) scale(1,1)"><path fill="#FFFFFF" stroke="none" d="M 64.41903551203198 489.3253497152483 L 56 469 L 47.580964487968025 489.3253497152483"/></g><g transform="translate(10,-94) scale(1,1)"><path fill="none" stroke="#000000" d="M 64.41903551203198 489.3253497152483 L 56 469 L 47.580964487968025 489.3253497152483 L 64.41903551203198 489.3253497152483" stroke-miterlimit="10"/></g><g transform="translate(10,-94) scale(1,1)"><path fill="none" stroke="#000000" d="M 424 632 L 424 469" stroke-miterlimit="10"/></g><g transform="translate(10,-94) scale(1,1)"><path fill="#FFFFFF" stroke="none" d="M 432.419035512032 489.3253497152483 L 424 469 L 415.580964487968 489.3253497152483"/></g><g transform="translate(10,-94) scale(1,1)"><path fill="none" stroke="#000000" d="M 432.419035512032 489.3253497152483 L 424 469 L 415.580964487968 489.3253497152483 L 432.419035512032 489.3253497152483" stroke-miterlimit="10"/></g><g transform="translate(10,-94) scale(1,1)"><rect fill="#C0C0C0" stroke="none" x="895" y="215" width="100.00634765625" height="44" opacity="0.2"/></g><g transform="translate(10,-94) scale(1,1)"><rect fill="#ffff00" stroke="none" x="888" y="208" width="100.00634765625" height="44"/></g><g transform="translate(10,-94) scale(1,1)"><path fill="none" stroke="#000000" d="M 888 208 L 988.00634765625 208 L 988.00634765625 252 L 888 252 L 888 208 Z Z" stroke-miterlimit="10"/></g><g transform="translate(10,-94) scale(1,1)"><path fill="none" stroke="#000000" d="M 888 233 L 988.00634765625 233" stroke-miterlimit="10"/></g><g transform="translate(10,-94) scale(1,1)"><path fill="none" stroke="#000000" d="M 888 243 L 988.00634765625 243" stroke-miterlimit="10"/></g><g transform="translate(10,-94) scale(1,1)"><g><path fill="none" stroke="none"/><text fill="#000000" stroke="none" font-family="Arial" font-size="13px" font-style="normal" font-weight="bold" text-decoration="none" x="896.08642578125" y="227.5">InputSplitBase</text></g></g><g transform="translate(10,-94) scale(1,1)"><rect fill="#C0C0C0" stroke="none" x="823" y="343" width="80.50634765625" height="44" opacity="0.2"/></g><g transform="translate(10,-94) scale(1,1)"><rect fill="#ffff00" stroke="none" x="816" y="336" width="80.50634765625" height="44"/></g><g transform="translate(10,-94) scale(1,1)"><path fill="none" stroke="#000000" d="M 816 336 L 896.50634765625 336 L 896.50634765625 380 L 816 380 L 816 336 Z Z" stroke-miterlimit="10"/></g><g transform="translate(10,-94) scale(1,1)"><path fill="none" stroke="#000000" d="M 816 361 L 896.50634765625 361" stroke-miterlimit="10"/></g><g transform="translate(10,-94) scale(1,1)"><path fill="none" stroke="#000000" d="M 816 371 L 896.50634765625 371" stroke-miterlimit="10"/></g><g transform="translate(10,-94) scale(1,1)"><g><path fill="none" stroke="none"/><text fill="#000000" stroke="none" font-family="Arial" font-size="13px" font-style="normal" font-weight="bold" text-decoration="none" x="823.734130859375" y="355.5">LineSplitter</text></g></g><g transform="translate(10,-94) scale(1,1)"><path fill="none" stroke="#000000" d="M 871 335 L 923 253" stroke-miterlimit="10"/></g><g transform="translate(10,-94) scale(1,1)"><path fill="#FFFFFF" stroke="none" d="M 919.224868759563 274.67367952419426 L 923 253 L 905.004973335196 265.6561848648396"/></g><g transform="translate(10,-94) scale(1,1)"><path fill="none" stroke="#000000" d="M 919.224868759563 274.67367952419426 L 923 253 L 905.004973335196 265.6561848648396 L 919.224868759563 274.67367952419426" stroke-miterlimit="10"/></g><g transform="translate(10,-94) scale(1,1)"><path fill="none" stroke="#000000" d="M 937 207 L 937 165" stroke-miterlimit="10"/></g><g transform="translate(10,-94) scale(1,1)"><path fill="#FFFFFF" stroke="none" d="M 945.419035512032 185.3253497152483 L 937 165 L 928.580964487968 185.3253497152483"/></g><g transform="translate(10,-94) scale(1,1)"><path fill="none" stroke="#000000" d="M 945.419035512032 185.3253497152483 L 937 165 L 928.580964487968 185.3253497152483 L 945.419035512032 185.3253497152483" stroke-miterlimit="10"/></g><g transform="translate(10,-94) scale(1,1)"><rect fill="#C0C0C0" stroke="none" x="959" y="351" width="112.29541015625" height="44" opacity="0.2"/></g><g transform="translate(10,-94) scale(1,1)"><rect fill="#ffff00" stroke="none" x="952" y="344" width="112.29541015625" height="44"/></g><g transform="translate(10,-94) scale(1,1)"><path fill="none" stroke="#000000" d="M 952 344 L 1064.29541015625 344 L 1064.29541015625 388 L 952 388 L 952 344 Z Z" stroke-miterlimit="10"/></g><g transform="translate(10,-94) scale(1,1)"><path fill="none" stroke="#000000" d="M 952 369 L 1064.29541015625 369" stroke-miterlimit="10"/></g><g transform="translate(10,-94) scale(1,1)"><path fill="none" stroke="#000000" d="M 952 379 L 1064.29541015625 379" stroke-miterlimit="10"/></g><g transform="translate(10,-94) scale(1,1)"><g><path fill="none" stroke="none"/><text fill="#000000" stroke="none" font-family="Arial" font-size="13px" font-style="normal" font-weight="bold" text-decoration="none" x="960.102294921875" y="363.5">RecordIOSplitter</text></g></g><g transform="translate(10,-94) scale(1,1)"><path fill="none" stroke="#000000" d="M 996 343 L 950 253" stroke-miterlimit="10"/></g><g transform="translate(10,-94) scale(1,1)"><path fill="#FFFFFF" stroke="none" d="M 966.7468926600446 267.2668001399383 L 950 253 L 951.7536902389372 274.92999248850435"/></g><g transform="translate(10,-94) scale(1,1)"><path fill="none" stroke="#000000" d="M 966.7468926600446 267.2668001399383 L 950 253 L 951.7536902389372 274.92999248850435 L 966.7468926600446 267.2668001399383" stroke-miterlimit="10"/></g><g transform="translate(10,-94) scale(1,1)"><rect fill="#C0C0C0" stroke="none" x="1127" y="183" width="50.919921875" height="44" opacity="0.2"/></g><g transform="translate(10,-94) scale(1,1)"><rect fill="#ffff00" stroke="none" x="1120" y="176" width="50.919921875" height="44"/></g><g transform="translate(10,-94) scale(1,1)"><path fill="none" stroke="#000000" d="M 1120 176 L 1170.919921875 176 L 1170.919921875 220 L 1120 220 L 1120 176 Z Z" stroke-miterlimit="10"/></g><g transform="translate(10,-94) scale(1,1)"><path fill="none" stroke="#000000" d="M 1120 201 L 1170.919921875 201" stroke-miterlimit="10"/></g><g transform="translate(10,-94) scale(1,1)"><path fill="none" stroke="#000000" d="M 1120 211 L 1170.919921875 211" stroke-miterlimit="10"/></g><g transform="translate(10,-94) scale(1,1)"><g><path fill="none" stroke="none"/><text fill="#000000" stroke="none" font-family="Arial" font-size="13px" font-style="normal" font-weight="bold" text-decoration="none" x="1132.450439453125" y="195.5">Blob</text></g></g><g transform="translate(10,-94) scale(1,1)"><rect fill="#C0C0C0" stroke="none" x="1127" y="263" width="50.919921875" height="44" opacity="0.2"/></g><g transform="translate(10,-94) scale(1,1)"><rect fill="#ffff00" stroke="none" x="1120" y="256" width="50.919921875" height="44"/></g><g transform="translate(10,-94) scale(1,1)"><path fill="none" stroke="#000000" d="M 1120 256 L 1170.919921875 256 L 1170.919921875 300 L 1120 300 L 1120 256 Z Z" stroke-miterlimit="10"/></g><g transform="translate(10,-94) scale(1,1)"><path fill="none" stroke="#000000" d="M 1120 281 L 1170.919921875 281" stroke-miterlimit="10"/></g><g transform="translate(10,-94) scale(1,1)"><path fill="none" stroke="#000000" d="M 1120 291 L 1170.919921875 291" stroke-miterlimit="10"/></g><g transform="translate(10,-94) scale(1,1)"><g><path fill="none" stroke="none"/><text fill="#000000" stroke="none" font-family="Arial" font-size="13px" font-style="normal" font-weight="bold" text-decoration="none" x="1126.6708984375" y="275.5">Chunk</text></g></g><g transform="translate(10,-94) scale(1,1)"><path fill="none" stroke="#000000" d="M 1119 272 L 989 242" stroke-miterlimit="10" stroke-dasharray="3"/></g><g transform="translate(10,-94) scale(1,1)"><path fill="none" stroke="#000000" d="M 999.8489709920335 240.18345701564309 L 989 242 L 997.9558708199186 248.3868910948074" stroke-miterlimit="10"/></g><g transform="translate(10,-94) scale(1,1)"><path fill="none" stroke="#000000" d="M 1119 202 L 989 222" stroke-miterlimit="10" stroke-dasharray="3"/></g><g transform="translate(10,-94) scale(1,1)"><path fill="none" stroke="#000000" d="M 998.4044127846545 216.2941240658574 L 989 222 L 999.684587618748 224.6152604874653" stroke-miterlimit="10"/></g><g transform="translate(10,-94) scale(1,1)"><rect fill="#C0C0C0" stroke="none" x="215" y="111" width="105.07177734375" height="44" opacity="0.2"/></g><g transform="translate(10,-94) scale(1,1)"><rect fill="#ffff00" stroke="none" x="208" y="104" width="105.07177734375" height="44"/></g><g transform="translate(10,-94) scale(1,1)"><path fill="none" stroke="#000000" d="M 208 104 L 313.07177734375 104 L 313.07177734375 148 L 208 148 L 208 104 Z Z" stroke-miterlimit="10"/></g><g transform="translate(10,-94) scale(1,1)"><path fill="none" stroke="#000000" d="M 208 129 L 313.07177734375 129" stroke-miterlimit="10"/></g><g transform="translate(10,-94) scale(1,1)"><path fill="none" stroke="#000000" d="M 208 139 L 313.07177734375 139" stroke-miterlimit="10"/></g><g transform="translate(10,-94) scale(1,1)"><g><path fill="none" stroke="none"/><text fill="#000000" stroke="none" font-family="Arial" font-size="13px" font-style="normal" font-weight="bold" text-decoration="none" x="215.391357421875" y="123.5">RecordIOWriter</text></g></g><g transform="translate(10,-94) scale(1,1)"><rect fill="#C0C0C0" stroke="none" x="1007" y="511" width="111.5908203125" height="44" opacity="0.2"/></g><g transform="translate(10,-94) scale(1,1)"><rect fill="#ffff00" stroke="none" x="1000" y="504" width="111.5908203125" height="44"/></g><g transform="translate(10,-94) scale(1,1)"><path fill="none" stroke="#000000" d="M 1000 504 L 1111.5908203125 504 L 1111.5908203125 548 L 1000 548 L 1000 504 Z Z" stroke-miterlimit="10"/></g><g transform="translate(10,-94) scale(1,1)"><path fill="none" stroke="#000000" d="M 1000 529 L 1111.5908203125 529" stroke-miterlimit="10"/></g><g transform="translate(10,-94) scale(1,1)"><path fill="none" stroke="#000000" d="M 1000 539 L 1111.5908203125 539" stroke-miterlimit="10"/></g><g transform="translate(10,-94) scale(1,1)"><g><path fill="none" stroke="none"/><text fill="#000000" stroke="none" font-family="Arial" font-size="13px" font-style="normal" font-weight="bold" text-decoration="none" x="1006.661376953125" y="523.5">RecordIOReader</text></g></g><g transform="translate(10,-94) scale(1,1)"><path fill="none" stroke="#000000" d="M 1015 504 L 1015 388" stroke-miterlimit="10" stroke-dasharray="3"/></g><g transform="translate(10,-94) scale(1,1)"><path fill="none" stroke="#000000" d="M 1019.209517756016 398.16267485762415 L 1015 388 L 1010.790482243984 398.16267485762415" stroke-miterlimit="10"/></g><g transform="translate(10,-94) scale(1,1)"><path fill="none" stroke="#000000" d="M 872 474 L 1008 474 L 1008 388" stroke-miterlimit="10" stroke-dasharray="3"/></g><g transform="translate(10,-94) scale(1,1)"><path fill="none" stroke="#000000" d="M 1012.209517756016 398.16267485762415 L 1008 388 L 1003.790482243984 398.16267485762415" stroke-miterlimit="10"/></g><g transform="translate(10,-94) scale(1,1)"><path fill="none" stroke="#000000" d="M 480 464 L 640 464 L 640 608" stroke-miterlimit="10" stroke-dasharray="3"/></g><g transform="translate(10,-94) scale(1,1)"><path fill="none" stroke="#000000" d="M 635.790482243984 597.8373251423759 L 640 608 L 644.209517756016 597.8373251423759" stroke-miterlimit="10"/></g><g transform="translate(10,-94) scale(1,1)"><path fill="none" stroke="#000000" d="M 736 416 L 736 136 L 313 136" stroke-miterlimit="10" stroke-dasharray="3"/></g><g transform="translate(10,-94) scale(1,1)"><path fill="none" stroke="#000000" d="M 323.16267485762415 131.790482243984 L 313 136 L 323.16267485762415 140.209517756016" stroke-miterlimit="10"/></g><g transform="translate(10,-94) scale(1,1)"><path fill="none" stroke="#000000" d="M 656 608 L 656 126 L 313 126" stroke-miterlimit="10" stroke-dasharray="3"/></g><g transform="translate(10,-94) scale(1,1)"><path fill="none" stroke="#000000" d="M 323.16267485762415 121.79048224398402 L 313 126 L 323.16267485762415 130.209517756016" stroke-miterlimit="10"/></g><g transform="translate(10,-94) scale(1,1)"><path fill="none" stroke="#000000" d="M 1040 878 L 936 878" stroke-miterlimit="10" stroke-dasharray="3"/></g><g transform="translate(10,-94) scale(1,1)"><path fill="none" stroke="#000000" d="M 946.1626748576241 873.790482243984 L 936 878 L 946.1626748576241 882.209517756016" stroke-miterlimit="10"/></g></g></svg>